<svg xmlns="http://www.w3.org/2000/svg" width="1344" height="940" viewBox="0 0 1344 940" role="img" aria-label="Maki 0.5.5 versus FrontierHarness Eval baselines: pass rate and cost per pass">
<rect width="1344" height="940" fill="#000"/>
<style>
text{font-family:Arial,Helvetica,sans-serif}.legend,.axis,.point-value,.grid text,.note{font-family:Menlo,Consolas,'DejaVu Sans Mono',monospace}
.legend{font-size:14px;fill:#d0d0d0}.grid line{stroke:#3a3a3a;stroke-dasharray:4 2;stroke-width:1}.grid text{fill:#ddd;font-size:17px}
.point-name{font-size:17px}.point-value{fill:#d8d8d8;font-size:15px}.axis{fill:#ddd;font-size:17px}.note{fill:#bbb;font-size:13.5px}
.title{fill:#f2f2f2;font-size:20px}.maki{fill:#ff8a2a;font-size:20px;font-weight:bold}
</style>
<circle cx="48" cy="25" r="5" fill="#9d91ff" stroke="#c4c4c4" stroke-width="1.1"/>
<text class="legend" x="60" y="30">Codex</text>
<polygon points="124,20 129,30 119,30" fill="#7cc0f5" stroke="#c4c4c4" stroke-width="1.1"/>
<text class="legend" x="136" y="30">DSH Creator</text>
<polygon points="250.4,20 255.4,25 250.4,30 245.4,25" fill="#f5b08c" stroke="#c4c4c4" stroke-width="1.1"/>
<text class="legend" x="262.4" y="30">Claude Code</text>
<rect x="371.8" y="20" width="10" height="10" fill="#f0f0f0" stroke="#c4c4c4" stroke-width="1.1"/>
<text class="legend" x="388.8" y="30">Pi</text>
<polygon points="427.6,20 432.6,25 427.6,30 422.6,25" fill="#7cc0f5" stroke="#c4c4c4" stroke-width="1.1"/>
<text class="legend" x="439.6" y="30">DSH PTC</text>
<rect x="515.4" y="20" width="10" height="10" fill="#7cc0f5" stroke="#c4c4c4" stroke-width="1.1"/>
<text class="legend" x="532.4" y="30">DSH Standard</text>
<polygon points="655.2,20 660.2,25 655.2,30 650.2,25" fill="#f5b083" stroke="#c4c4c4" stroke-width="1.1"/>
<text class="legend" x="667.2" y="30">Oh My Pi</text>
<circle cx="756.4" cy="25" r="5" fill="#8fe0cf" stroke="#c4c4c4" stroke-width="1.1"/>
<text class="legend" x="768.4" y="30">Kimi Code</text>
<circle cx="866" cy="25" r="5" fill="#7cc0f5" stroke="#c4c4c4" stroke-width="1.1"/>
<text class="legend" x="878" y="30">DSH Minimal</text>
<polygon points="987.4,25 989.9,20 994.9,20 997.4,25 994.9,30 989.9,30" fill="#dddddd" stroke="#c4c4c4" stroke-width="1.1"/>
<text class="legend" x="1004.4" y="30">Exo Harness</text>
<rect x="1113.8" y="20" width="10" height="10" fill="#b88af0" stroke="#c4c4c4" stroke-width="1.1"/>
<text class="legend" x="1130.8" y="30">OpenCode</text>
<polygon points="1220,20 1225,30 1215,30" fill="#b0b0b0" stroke="#c4c4c4" stroke-width="1.1"/>
<text class="legend" x="1232" y="30">Hermes</text>
<polygon points="48,49.5 50.25,54.91 56.08,55.37 51.64,59.18 53,64.88 48,61.83 43,64.88 44.36,59.18 39.92,55.37 45.75,54.91" fill="#ff7a12" stroke="#c4c4c4" stroke-width="1.1"/>
<text class="legend" x="62" y="63">Maki 0.5.5 — ranked 1 of 13 on pass rate</text>
<g class="grid">
<line x1="169.31" y1="104" x2="169.31" y2="740"/><text x="169.31" y="770" text-anchor="middle">$1</text>
<line x1="419.71" y1="104" x2="419.71" y2="740"/><text x="419.71" y="770" text-anchor="middle">$2</text>
<line x1="750.72" y1="104" x2="750.72" y2="740"/><text x="750.72" y="770" text-anchor="middle">$5</text>
<line x1="1001.11" y1="104" x2="1001.11" y2="740"/><text x="1001.11" y="770" text-anchor="middle">$10</text>
<line x1="1251.51" y1="104" x2="1251.51" y2="740"/><text x="1251.51" y="770" text-anchor="middle">$20</text>
<line x1="104" y1="700.95" x2="1302" y2="700.95"/><text x="92" y="706.95" text-anchor="end">50.0%</text>
<line x1="104" y1="561.47" x2="1302" y2="561.47"/><text x="92" y="567.47" text-anchor="end">55.0%</text>
<line x1="104" y1="422" x2="1302" y2="422"/><text x="92" y="428" text-anchor="end">60.0%</text>
<line x1="104" y1="282.53" x2="1302" y2="282.53"/><text x="92" y="288.53" text-anchor="end">65.0%</text>
<line x1="104" y1="143.05" x2="1302" y2="143.05"/><text x="92" y="149.05" text-anchor="end">70.0%</text>
</g>
<path d="M 104 104 V 740 H 1302" fill="none" stroke="#ccc" stroke-width="1.2"/>
<circle cx="618.76" cy="236.04" r="7" fill="#9d91ff" stroke="#c4c4c4" stroke-width="1.1"/>
<text class="point-name" x="632.76" y="232.04" fill="#9d91ff" text-anchor="start"><tspan x="632.76">Codex</tspan><tspan class="point-value" x="632.76" dy="20">66.7% · $3.47</tspan></text>
<polygon points="598.42,322.02 605.42,336.02 591.42,336.02" fill="#7cc0f5" stroke="#c4c4c4" stroke-width="1.1"/>
<text class="point-name" x="584.42" y="303.02" fill="#7cc0f5" text-anchor="end"><tspan x="584.42">DSH Creator</tspan><tspan class="point-value" x="584.42" dy="20">63.3% · $3.28</tspan></text>
<polygon points="1220.21,322.02 1227.21,329.02 1220.21,336.02 1213.21,329.02" fill="#f5b08c" stroke="#c4c4c4" stroke-width="1.1"/>
<text class="point-name" x="1206.21" y="325.02" fill="#f5b08c" text-anchor="end"><tspan x="1206.21">Claude Code</tspan><tspan class="point-value" x="1206.21" dy="20">63.3% · $18.34</tspan></text>
<rect x="483.06" y="415" width="14" height="14" fill="#f0f0f0" stroke="#c4c4c4" stroke-width="1.1"/>
<text class="point-name" x="476.06" y="398" fill="#f0f0f0" text-anchor="end"><tspan x="476.06">Pi</tspan><tspan class="point-value" x="476.06" dy="20">60.0% · $2.43</tspan></text>
<polygon points="719.02,415 726.02,422 719.02,429 712.02,422" fill="#7cc0f5" stroke="#c4c4c4" stroke-width="1.1"/>
<text class="point-name" x="733.02" y="400" fill="#7cc0f5" text-anchor="start"><tspan x="733.02">DSH PTC</tspan><tspan class="point-value" x="733.02" dy="20">60.0% · $4.58</tspan></text>
<rect x="610.72" y="415" width="14" height="14" fill="#7cc0f5" stroke="#c4c4c4" stroke-width="1.1"/>
<text class="point-name" x="631.72" y="446" fill="#7cc0f5" text-anchor="start"><tspan x="631.72">DSH Standard</tspan><tspan class="point-value" x="631.72" dy="20">60.0% · $3.46</tspan></text>
<polygon points="732.19,507.98 739.19,514.98 732.19,521.98 725.19,514.98" fill="#f5b083" stroke="#c4c4c4" stroke-width="1.1"/>
<text class="point-name" x="746.19" y="506.98" fill="#f5b083" text-anchor="start"><tspan x="746.19">Oh My Pi</tspan><tspan class="point-value" x="746.19" dy="20">56.7% · $4.75</tspan></text>
<circle cx="637.03" cy="514.98" r="7" fill="#8fe0cf" stroke="#c4c4c4" stroke-width="1.1"/>
<text class="point-name" x="623.03" y="510.98" fill="#8fe0cf" text-anchor="end"><tspan x="623.03">Kimi Code</tspan><tspan class="point-value" x="623.03" dy="20">56.7% · $3.65</tspan></text>
<circle cx="729.9" cy="514.98" r="7" fill="#7cc0f5" stroke="#c4c4c4" stroke-width="1.1"/>
<text class="point-name" x="743.9" y="550.98" fill="#7cc0f5" text-anchor="start"><tspan x="743.9">DSH Minimal</tspan><tspan class="point-value" x="743.9" dy="20">56.7% · $4.72</tspan></text>
<polygon points="179.94,607.96 183.44,600.96 190.44,600.96 193.94,607.96 190.44,614.96 183.44,614.96" fill="#dddddd" stroke="#c4c4c4" stroke-width="1.1"/>
<text class="point-name" x="200.94" y="603.96" fill="#dddddd" text-anchor="start"><tspan x="200.94">Exo Harness</tspan><tspan class="point-value" x="200.94" dy="20">53.3% · $1.05</tspan></text>
<rect x="586.98" y="693.95" width="14" height="14" fill="#b88af0" stroke="#c4c4c4" stroke-width="1.1"/>
<text class="point-name" x="607.98" y="696.95" fill="#b88af0" text-anchor="start"><tspan x="607.98">OpenCode</tspan><tspan class="point-value" x="607.98" dy="20">50.0% · $3.24</tspan></text>
<polygon points="553.93,693.95 560.93,707.95 546.93,707.95" fill="#b0b0b0" stroke="#c4c4c4" stroke-width="1.1"/>
<text class="point-name" x="539.93" y="696.95" fill="#b0b0b0" text-anchor="end"><tspan x="539.93">Hermes</tspan><tspan class="point-value" x="539.93" dy="20">50.0% · $2.90</tspan></text>
<circle cx="430.39" cy="143.05" r="22" fill="#ff7a12" fill-opacity="0.12" stroke="#ff7a12" stroke-opacity="0.6" stroke-width="1.3"/>
<polygon points="430.39,130.55 434.09,139.46 443.7,140.23 436.38,146.5 438.62,155.88 430.39,150.85 422.16,155.88 424.4,146.5 417.07,140.23 426.68,139.46" fill="#ff7a12" stroke="#c4c4c4" stroke-width="1.1"/>
<text class="maki" x="460.39" y="139.05"><tspan x="460.39">Maki 0.5.5</tspan><tspan class="point-value" x="460.39" dy="22">70.0% · $2.06</tspan></text>
<text class="axis" x="703" y="804" text-anchor="middle">Cost per pass</text>
<text class="axis" transform="translate(30 422) rotate(-90)" text-anchor="middle">Pass rate</text>
<text class="title" x="40" y="852">Maki 0.5.5 versus the FrontierHarness Eval v1.0 baselines</text>
<text class="note" x="40" y="880">Cost per pass = recorded model cost across all 30 tasks (including failures) / tasks passed, at frozen benchmark token prices.</text>
<text class="note" x="40" y="902">Locally matched control, same Kimi K3 model and tasks: Maki 0.5.5 70.0% · $2.06 vs Codex 0.148.0 63.3% · $2.46.</text>
<text class="note" x="40" y="924">Run 2026-09-21-maki055-k3-matched: benchmark-comparable, historical environment equivalence unverified.</text>
</svg>
